<?xml version="1.0" encoding="UTF-8"?>
<svg id="Ebene_4" data-name="Ebene 4" xmlns="http://www.w3.org/2000/svg" viewBox="0 0 1053.08 737.49">
  <defs>
    <style>
      .cls-1 {
        letter-spacing: -.04em;
      }

      .cls-2 {
        letter-spacing: .27em;
      }

      .cls-3 {
        font-size: 44px;
      }

      .cls-3, .cls-4 {
        fill: #1d1d1b;
        font-family: Futura-Bold, Futura;
        font-weight: 700;
      }

      .cls-4 {
        font-size: 20px;
      }

      .cls-5 {
        letter-spacing: .3em;
      }

      .cls-6 {
        letter-spacing: 0em;
      }

      .cls-7 {
        letter-spacing: 0em;
      }

      .cls-8 {
        stroke-width: 0px;
      }
    </style>
  </defs>
  <path class="cls-8" d="M72.6,203.85c-10.08-15.12-10.2-27.55-.38-38.02,4.87-5.2,10.87-8.08,18.07-8.41,7.18-.33,13.32,2.16,18.93,7.08.13-.95.26-1.49.27-2.02.2-21.47.37-42.93.63-64.4.02-2.02-.7-2.87-2.6-3.07-2.23-.24-4.46-.53-6.67-.94-.53-.1-.96-.71-1.44-1.09.5-.32.96-.86,1.49-.93,2.39-.33,4.79-.63,7.19-.75,1.89-.09,2.27-.99,2.25-2.72-.18-15.56-.29-31.12-.41-46.68-.03-3.73,0-3.72,3.78-3.63,16.14.36,32.29.67,48.43,1.09,2.03.05,2.76-.6,2.94-2.62.48-5.3,1.14-10.57,1.78-15.85.11-.91.45-1.79.69-2.68.26-.02.52-.04.79-.05.26.75.69,1.49.75,2.25.4,5.47.83,10.95,1.03,16.43.08,2.12.74,2.89,2.91,2.93,11.65.22,23.29.56,34.94.88,4.91.13,9.81.38,14.72.46,1.7.03,2.16.85,2.16,2.32,0,3.33.04,6.66.05,9.99.04,13.65.08,27.3.11,40.94,0,1.44-.16,2.89,1.81,3.28.35.07.83.69.81,1.03-.03.36-.54.92-.91.98-1.38.2-1.7.97-1.7,2.25.05,14.15.06,28.29.09,42.44,0,.46.16.93.29,1.71,5.54-2.07,10.92-3.97,16.21-6.11,2.1-.85,3.86-.77,5.93.14,13.85,6.11,27.74,12.13,41.64,18.11,1.17.5,2.56.83,3.82.75,8.63-.56,15.6,2.51,21.75,8.59,2.11,2.08,5.8,2.61,8.83,3.65.35.12,1.21-.94,1.7-1.57,5.14-6.53,11.87-10.15,20.13-10.5,11.47-.49,21.69,7.16,25.02,18.41.21.7.38,1.42.62,2.28,3.89-12.4,12.02-19.79,25.01-20.16,10.93-.31,19.37,4.95,23.85,15.03,5.45,12.24,2.11,22.83-7.78,31.92,6,2.45,11.83,4.8,17.64,7.2,8.3,3.43,16.91,6.27,24.81,10.46,15.01,7.96,22.91,20.83,21.59,37.96-1.26,16.27-10.18,27.62-25.43,33.7-51.6,20.58-103.21,41.11-154.82,61.65-16.61,6.61-33.24,13.19-49.82,19.88-2.09.84-3.86.8-5.93-.03-56.46-22.76-112.93-45.48-169.41-68.17-12.27-4.93-24.54-9.84-36.88-14.6-17.82-6.88-27.87-24.5-27.28-39.64.47-11.89,6.68-21.18,15.57-28.79,4.97-4.25,10.95-6.54,16.92-8.89,10.83-4.26,21.64-8.59,32.46-12.9.3-.12.58-.3,1.04-.54ZM320.01,191.55c-4.36,12.75-14.87,20.27-26.71,19.51-11.77-.76-21.03-9.14-23.67-21.43-2.73,12.43-10.88,20.86-23.13,21.78-14.97,1.13-23.71-7.21-27.69-21.41-4.54,13.06-13.09,21.09-26.95,20.83-13.03-.25-20.66-8.17-24-20.75-.3.58-.54.91-.67,1.28-6.52,19.4-32.21,25.26-45.55,8.46-.43-.54-1.69-1.02-2.22-.78-4.5,2.1-8.9,4.42-13.38,6.57-3.34,1.61-6.66,3.36-10.17,4.5-2.87.93-6.16.58-8.99,1.58-11.13,3.93-22.18,8.1-33.2,12.33-6.36,2.44-12.88,4.65-18.84,7.87-9.61,5.19-18.27,16.44-13.66,30.82,2.78,8.67,7.44,15.91,16.21,19.45,26.83,10.83,53.73,21.5,80.59,32.26,40.99,16.41,81.97,32.85,122.98,49.2,1.31.52,3.18.59,4.47.08,28.47-11.22,56.89-22.55,85.32-33.86,36.85-14.66,73.73-29.26,110.54-44.04,5.12-2.06,10.69-4.08,14.68-7.65,13.06-11.66,10.85-35.64-6.89-43.81-12.14-5.6-24.71-10.27-37.15-15.21-8.1-3.21-16.35-6.05-24.45-9.25-6.25-2.47-12.39-5.22-18.55-7.92-1.83-.8-3-.62-4.45,1.04-12.71,14.58-35.46,10.9-42.9-6.86-.57-1.37-.98-2.81-1.59-4.59ZM167.5,168.01c.3.24.59.49.89.73,3.16-1.71,6.32-3.42,9.49-5.13,3.05-1.64,5.96-3.7,9.2-4.82,4.35-1.5,8.95-2.28,13.45-3.37,1.72-.42,2.32-1.45,2.28-3.26-.2-8.39-.29-16.79-.37-25.19-.08-7.82-.11-15.63-.11-23.45,0-1.47-.27-2.39-2.05-2.28-5.22.34-10.46.58-15.68.89-.69.04-1.37.24-2.32.41.71.93,1.2,1.6,1.71,2.24,5.24,6.57,10.48,13.13,15.71,19.69.41.52.91,1.01,1.18,1.6.2.45.11,1.03.14,1.55-.53-.03-1.13.07-1.59-.13-.67-.3-1.25-.81-1.86-1.24-6.93-4.89-13.86-9.78-20.8-14.66-.72-.51-1.47-.99-2.63-1.77-2.25,19.69-4.44,38.93-6.63,58.17ZM153.66,102.04c-1.05-.26-1.74-.49-2.45-.59-5.34-.77-10.68-1.53-16.03-2.28-3.14-.44-3.17-.43-3.19,2.8-.12,18.21-.23,36.42-.33,54.63,0,.87.09,1.73.16,2.85,13.62-4.92,24.67-1.8,33.56,10.15-1.77-20.31-3.48-39.86-5.22-59.84-1.14.82-1.88,1.33-2.6,1.87-7.46,5.58-14.9,11.17-22.4,16.7-.7.52-1.71.63-2.57.94.29-.86.38-1.87.91-2.54,3.2-4.04,6.5-8,9.77-11.99,3.41-4.16,6.81-8.32,10.39-12.7ZM110.06,93.02c.01.15.02.3.03.45,16.36,2.4,32.72,4.81,49.09,7.18,1.77.26,2.35,1.23,2.44,2.85.18,3.15.4,6.31.67,9.45,1.1,12.75,2.23,25.5,3.36,38.25.18,2.06.44,4.11.67,6.16,1.4-8.62,2.38-17.2,3.37-25.78,1.04-9.08,2.15-18.15,3.13-27.24.38-3.5.38-3.59,3.81-3.76,9.8-.51,19.6-1.05,29.4-1.61,4.11-.23,8.22-.54,12.33-.81-.79-.47-1.58-.69-2.39-.85-13.84-2.83-27.68-5.69-41.54-8.41-2-.39-2.91-1.2-3.03-3.19-.66-10.96-1.35-21.91-2.07-32.87-.46-7.11-.98-14.21-1.48-21.32-1.31,9.92-2.34,19.84-3.4,29.75-.88,8.18-1.81,16.35-2.67,24.53-.16,1.53-.66,2.38-2.38,2.54-12.42,1.12-24.83,2.33-37.25,3.51-4.03.38-8.07.77-12.1,1.15ZM194.3,162.05c-1.4.16-2.84.17-4.19.5-11.91,2.9-19.22,13.95-17.42,26.25,1.29,8.87,8.81,16.27,17.41,17.15,13.01,1.33,23.96-8.59,24.28-21.98.29-12.26-8.5-21.81-20.08-21.91ZM265.19,185.09c-.45-2.35-.71-4.76-1.4-7.05-3.71-12.4-17.73-18.46-28.8-12.3-8.3,4.62-11.86,12.08-11.36,21.43.77,14.4,15.17,23.72,28.22,18.38,7.82-3.21,13.05-11.37,13.34-20.46ZM121.11,183.8c.02,11.98,9.24,21.18,21.19,21.14,12.11-.04,21.63-9.78,21.59-22.08-.03-11.72-9.38-21.05-21.1-21.07-12.08-.02-21.7,9.75-21.69,22.02ZM91.27,162.03c-12.07,0-21.91,10.05-22,22.48-.09,11.97,9.45,21.91,21.01,21.88,11.95-.03,21.75-10.26,21.76-22.74.01-12.16-9.07-21.62-20.76-21.62ZM417.65,185.85c.03-11.98-9.33-21.55-21.13-21.62-11.66-.06-21.07,9.31-21.08,21.02-.02,11.91,9.45,21.59,21.17,21.64,11.69.05,21.02-9.28,21.04-21.04ZM366.67,184.77c-.02-11.82-9-21.1-20.39-21.07-12.19.03-21.85,9.98-21.85,22.49,0,11.71,9.07,21.12,20.41,21.17,12,.05,21.85-10.15,21.83-22.6ZM315.82,184.74c.05-11.82-9.17-21.49-20.43-21.43-11.53.07-21.01,9.96-21.02,21.93,0,11.71,9.08,21.15,20.36,21.18,11.69.02,21.04-9.6,21.09-21.68ZM277.64,165.82c-.57-.33-.9-.57-1.26-.73-10.16-4.36-20.3-8.75-30.51-12.99-1-.42-2.48-.25-3.56.14-9.69,3.49-19.35,7.09-29.01,10.67-.64.24-1.26.54-2.17.92,4.53,4.35,7.03,9.39,8.07,15.25,4.34-14.49,16.19-21.4,28.4-20.07,5.65.62,10.49,3.09,14.53,7.06,4.03,3.97,6.42,8.83,7.53,14.66,1.19-5.92,3.82-10.73,7.96-14.9ZM201.11,61.52h-29.27c.46,7.14.9,14.09,1.38,21.53,9.47-7.31,18.46-14.25,27.89-21.53ZM202.21,92.54c.45-10.04.89-19.8,1.33-29.56-.24-.05-.47-.1-.71-.15-6.69,8.42-13.38,16.84-20.41,25.68,6.81,1.38,13.08,2.66,19.79,4.03ZM134.26,60.8c8.9,7.1,17.27,13.78,25.96,20.72.75-6.44,1.45-12.28,2.09-18.13.13-1.21.38-2.6-1.63-2.6-8.55.02-17.1,0-26.42,0ZM152.31,86.98c-6.88-8.93-13.44-17.46-20.22-26.26-.13,1-.35,1.91-.34,2.82.1,7.14.25,14.27.37,21.41.07,3.89.06,3.94,3.94,3.6,5.25-.46,10.5-1.01,16.26-1.57ZM194.52,121.75c.1-.08.21-.16.31-.25-4.76-5.95-9.56-11.86-14.24-17.86-1.28-1.64-2.8-1.26-4.26-.88-.65.17-1.37,1.12-1.54,1.84-.37,1.52-.44,3.01,1.22,4.16,6.21,4.27,12.34,8.66,18.51,13ZM195.47,68.98c-.11-.13-.23-.26-.34-.39-6.31,4.86-12.63,9.71-18.9,14.62-.98.77-1.71,1.88-2.55,2.83,1.17.49,2.3,1.24,3.51,1.41,1.25.17,3.16.27,3.77-.45,4.97-5.89,9.7-11.99,14.5-18.02ZM140.3,121.41c.12.14.24.28.36.42.9-.67,1.81-1.33,2.7-2,5-3.73,9.94-7.54,15.02-11.16,1.75-1.24,1.66-2.8,1.3-4.39-.16-.69-1.02-1.43-1.74-1.74-1.62-.7-2.59.41-3.5,1.59-1.43,1.84-2.94,3.61-4.42,5.41-3.24,3.95-6.49,7.91-9.73,11.86ZM141.21,68.82c-.09.09-.18.17-.27.26,4,5.14,8.06,10.24,11.95,15.46,1.25,1.67,2.63,2.47,4.62,2,.8-.19,2.1-.56,2.17-1,.12-.81-.24-2.04-.86-2.55-5.81-4.79-11.72-9.46-17.61-14.16Z"/>
  <path class="cls-8" d="M328.76,227.6c-1.17,1.55-2.29,2.87-3.2,4.31-.86,1.36-1.5,2.87-2.23,4.31.18.22.35.45.53.67.82-.28,1.84-.35,2.43-.88,1.6-1.43,2.98-3.11,4.52-4.61,1.48-1.43,2.94-2.96,4.65-4.04.72-.45,2.09.13,3.17.24-.22,1.02-.21,2.18-.71,3.04-.74,1.27-2,2.24-2.74,3.51-.45.76-.33,1.85-.47,2.8.95.1,2.01.51,2.81.22,1.27-.45,2.58-1.18,3.5-2.14,2.25-2.33,4.15-5.02,6.48-7.25.89-.86,2.6-1.14,3.92-1.11.39,0,.95,1.99,1.04,3.1.13,1.73,0,3.5-.17,5.23-.18,1.79.58,2.38,2.29,2.31,3.41-.15,6.82-.22,10.23-.28.86-.02,1.73.12,2.82.2-1.07,2.71-3.13,3-5.2,3.12-2.15.13-4.32.07-6.48.14-2.21.07-4.27.06-6.31,1.6-2.52,1.9-5.86.71-8.83-2.32-2.09.72-4.04,1.74-6.09,2-2.5.32-3.82-1.59-4.66-3.88-3.26,2.16-6.34,5.31-10.43,2.91-3.17-1.86-1.93-5.09-1.33-8.02-2.27-.63-3.85-.63-4.93,2.04-1.5,3.71-4.53,6.12-8.34,7.38-4.75,1.57-7.56-.23-8.66-5.44-2.4,1.25-4.76,2.6-7.22,3.72-1.26.57-2.7.87-4.09,1.05-4.38.57-6.69-1.35-7.49-5.81-2.6,1.51-5.17,3.35-8.01,4.56-3.61,1.54-5.28.74-7.16-2.64-3.31,2.12-6.74,4.53-10.74,1.94-2.67-1.73-1.86-4.51-1-7.25-1.7-.34-3.27-.66-5.01-1.02-1.22,4.42-3.84,7.69-8.03,9.29-1.94.74-4.22,1.02-6.3.87-3.01-.21-4.43-2.02-5.32-5.88-1.52,1.08-2.91,2.26-4.47,3.11-1.36.75-2.88,1.31-4.4,1.64-2.99.65-4.33-.54-5.09-4.39-1.57,1-3.03,2.08-4.61,2.9-1.39.73-2.87,1.37-4.39,1.71-2.18.48-4.13-.26-5.58-2-1.41-1.7-1.08-3.52-.25-5.39,2.69-6,12.36-10.57,18.57-8.74,2.37.7,3.73,3.11,3.01,5.49-.24.79-.8,1.48-.99,2.27-.24.96-.25,1.97-.35,2.96,1.08.12,2.31.63,3.21.28,3.74-1.42,6.61-3.96,8.94-7.27,2.42-3.45,5.04-6.79,7.84-9.93,1.02-1.14,2.78-1.81,4.33-2.22.83-.22,2.24.32,2.79,1,.42.52.24,2.09-.27,2.69-2.95,3.47-6.2,6.67-9.07,10.19-1.4,1.71-2.61,3.81-3.14,5.92-.52,2.06,1.15,3.11,3.12,2.15,3.18-1.54,5.32-4,5.6-7.67.28-3.62,1.53-4.31,4.74-2.86,3.3,1.49,6.69,2.01,9.87-.52.51-.41,1.16-.85,1.76-.88.9-.04,1.82.27,2.74.43-.28.8-.42,1.69-.86,2.38-.85,1.32-2.03,2.45-2.76,3.83-.44.84-.3,2-.42,3.02,1.1,0,2.41.39,3.24-.08,1.79-1.01,3.42-2.35,4.93-3.76,1.33-1.24,2.33-2.82,3.6-4.13.59-.61,1.42-1.19,2.22-1.34.7-.13,1.85.14,2.18.64.29.44-.09,1.56-.48,2.19-1.06,1.68-2.39,3.2-3.39,4.91-.39.67-.21,1.67-.28,2.52.86-.09,1.87.08,2.56-.31,4.62-2.67,8.84-5.55,11.32-10.77,1.53-3.22,4.61-5.75,7.18-8.42.72-.75,2.07-1.1,3.18-1.22,3.64-.4,5.42,2.05,3.97,5.57-1.84,4.46-5.41,7.26-9.65,9.31-.6.29-1.21.61-1.86.72-2.48.44-2.32,2.29-2.14,4.04.19,1.86,1.67,2.77,3.2,2.34,2.74-.77,5.54-1.72,7.95-3.19,3.18-1.93,6.02-4.44,9.01-6.69,2.42-1.81,5.14-2.29,8.04-1.59.85.21,1.94.61,2.33,1.27,1.08,1.84,2.53,2.23,4.54,2.21,1.94-.02,3.46-.44,4.92-1.8,1.77-1.65,3.88-1.99,6.35-.53ZM309.3,231.33c-.44-.27-1.17-1.09-1.86-1.05-2.75.16-6.75,4.47-6.83,7.14-.04,1.51.7,2.16,2.19,1.82,2.39-.54,6.14-4.75,6.49-7.91ZM212.79,229.34c-3.7-.26-6.95.63-9.41,3.4-.47.53-.32,1.63-.45,2.46.74.07,1.58.39,2.21.16,3.16-1.15,5.61-3.28,7.64-6.03ZM343.84,237.17c3.12,1.26,4.58-.58,4.06-4.88-1.42,1.71-2.66,3.19-4.06,4.88ZM292.4,220.99c-.33-.29-.66-.57-.99-.86-1.57,1.87-3.15,3.73-4.72,5.6.26.23.52.45.79.68,1.64-1.81,3.29-3.62,4.93-5.42Z"/>
  <path class="cls-8" d="M170.94,219.68c-2.14,0-4.29.04-6.43-.01-2.09-.05-2.71-.9-2-2.85.74-2.04,2.39-2.98,4.48-2.93,2.83.06,5.65.29,8.47.45,10.46.57,20.93,1.16,31.39,1.7,2.49.13,4.54.78,5.75,3.72-1.14.15-2.05.38-2.96.38-8.24-.03-16.48.02-24.72-.23-2.76-.09-4.59.74-5.98,3.04-.72,1.19-1.71,2.23-2.91,3.75,3.16.25,5.91.48,8.66.67,1.66.11,3.33.05,4.99.22,1.71.18,2.97,1,3.17,3.28-.88.11-1.72.3-2.57.3-5.16,0-10.32-.16-15.48,0-1.21.04-2.73.76-3.53,1.68-2.95,3.39-5.63,7-8.46,10.49-.73.9-1.57,2.58-2.88,1.23-.87-.89-1.6-2.81-1.22-3.82.91-2.37,2.54-4.45,3.86-6.67,1.13-1.89,3.22-3.59,1.17-6.14-.14-.17.53-1.42.75-1.4,4.7.46,4.58-4.01,6.83-6.03-.13-.27-.27-.53-.4-.8Z"/>
  <path class="cls-8" d="M134.39,218.4c5.43,0,10.01,4.65,10.08,10.27.07,5.83-4.93,10.98-10.66,10.98-5.57,0-9.91-4.49-9.93-10.27-.02-6.07,4.67-10.97,10.51-10.98ZM139.53,228.81c.03-3.25-2.05-5.57-5.04-5.63-3.28-.07-5.9,2.62-5.92,6.08-.02,3.19,2.11,5.54,5.09,5.61,3.36.08,5.84-2.48,5.87-6.05Z"/>
  <path class="cls-8" d="M115.92,218.49c2.16,0,4.33-.04,6.49.01,1.57.04,2.88.63,2.85,2.43-.03,1.83-1.38,2.22-2.95,2.29-4.12.18-4.12.2-4.28,4.37-.11,2.91-.22,5.81-.33,8.72-.06,1.48-.57,2.69-2.23,2.77-1.84.08-2.49-1.25-2.47-2.78.05-3.49.2-6.98.42-10.46.12-1.87-.35-2.78-2.46-2.65-1.82.12-4.4.55-4.37-2.26.03-2.88,2.66-2.36,4.58-2.43,1.58-.06,3.16-.01,4.74-.01h0Z"/>
  <path class="cls-8" d="M183.91,183.48c0-3.15,0-6.31,0-9.46,0-.58-.02-1.17.05-1.74.19-1.49.61-2.87,2.49-2.8,1.88.07,2.23,1.43,2.23,2.97,0,5.65-.03,11.29-.04,16.94q0,3.45,3.37,3.49c2.66.03,5.32.05,7.97.09,1.82.03,3.84.18,3.79,2.54-.04,2.24-1.99,2.3-3.73,2.24-4.4-.15-8.79-.37-13.19-.45-2.14-.04-3-1.1-3-3.09,0-3.57,0-7.14,0-10.71h.05Z"/>
  <path class="cls-8" d="M235.38,185.39c.02,7.47,7.34,11.74,13.87,8.08.36-.2.7-.45,1.05-.67,1.27-.82,2.58-1.02,3.51.35.99,1.47.27,2.7-1.03,3.6-4.72,3.25-9.73,3.73-14.84,1.11-6.93-3.55-9.42-12.44-5.62-19.58,3.75-7.07,12.32-9.87,19.2-6.28.37.19.72.42,1.07.64,1.38.87,2.05,2.09,1.16,3.56-.86,1.42-2.24,1.25-3.5.47-2.39-1.48-4.95-1.93-7.64-1.15-4.49,1.29-7.23,5.11-7.22,9.88Z"/>
  <path class="cls-8" d="M132.85,182.68c0-3.82,0-7.64,0-11.46,0-1.96.96-2.86,2.93-2.85,4.9.04,9.81.02,14.71.03,1.64,0,3.15.38,3.13,2.36-.01,1.98-1.63,2.34-3.19,2.37-3.41.06-6.82.11-10.22-.03-2.1-.09-2.7.73-2.73,2.73-.09,5.2-.17,5.19,5.14,5.26,1.99.03,4.04-.18,5.96.21,1.05.21,2.51,1.32,2.7,2.24.35,1.72-1.24,2.41-2.76,2.42-3.07.02-6.15-.08-9.22-.25-1.63-.09-2.2.5-2.19,2.13.03,5.75-.74,4.96,4.73,5.05,2.99.05,5.99.04,8.98.1,1.61.03,3.16.48,3.17,2.4.02,1.94-1.47,2.37-3.14,2.35-5.07-.05-10.14-.06-15.21-.16-2.78-.06-3.46-.92-3.43-3.69.04-3.74,0-7.48,0-11.22.21,0,.42,0,.63,0Z"/>
  <path class="cls-8" d="M83.41,188.35c1.55-4.28,2.78-7.97,4.26-11.55.41-.98,1.55-2.29,2.38-2.3.88-.01,2.1,1.16,2.61,2.11,1.98,3.73,3.74,7.57,5.93,12.09.71-2.98,1.29-5.27,1.8-7.56.6-2.67,1.14-5.36,1.75-8.03.36-1.59.9-3.37,2.95-2.98,2.12.4,2.14,2.07,1.7,3.94-1.51,6.47-2.89,12.96-4.34,19.44-.2.89-.32,1.85-.77,2.61-.46.78-1.26,1.86-1.93,1.88-.85.02-2.12-.69-2.52-1.45-1.99-3.74-3.76-7.59-5.61-11.4-.27-.56-.62-1.1-1.22-2.15-1.49,4.12-2.76,7.77-4.14,11.37-.65,1.7-.77,4.13-3.37,3.97-2.43-.15-2.38-2.5-2.84-4.16-1.58-5.68-3.05-11.39-4.54-17.09-.25-.96-.45-1.94-.63-2.92-.27-1.5.16-2.95,1.76-2.96.89,0,2.31,1.1,2.58,1.99,1.49,4.75,2.69,9.58,4.2,15.15Z"/>
  <path class="cls-8" d="M386.17,184.87c0-3.66-.04-7.32.01-10.98.04-2.64.82-3.4,3.5-3.35,4.91.08,9.81.25,14.71.37,1.56.04,2.93.48,2.98,2.29.05,1.97-1.41,2.51-3.05,2.47-3.66-.08-7.32-.2-10.97-.43-1.79-.11-2.55.39-2.52,2.33.11,7.02-.96,5.71,5.68,5.85,1.83.04,3.66.02,5.49.02,1.77,0,3.61.19,3.57,2.46-.04,2.09-1.8,2.31-3.47,2.3-2.99,0-5.99.06-8.98-.06-1.82-.08-2.64.62-2.61,2.41.01.83.02,1.66-.04,2.49-.09,1.41.57,1.89,1.94,1.88,3.41-.02,6.82.04,10.23.11.82.02,1.84-.1,2.42.32.76.55,1.58,1.58,1.59,2.41,0,.63-1.21,1.82-1.89,1.82-5.57.05-11.14-.04-16.7-.27-2.05-.08-2.35-1.79-2.36-3.49,0-3.66,0-7.31,0-10.97.16,0,.31,0,.47,0Z"/>
  <path class="cls-8" d="M353.38,184.83c-1.77,3.84-3.44,7.72-5.37,11.48-.57,1.11-1.79,2.42-2.85,2.56-.77.1-2.08-1.43-2.62-2.49-2.11-4.13-4.02-8.36-6.58-12.48,0,3.18.02,6.36,0,9.54-.01,1.58.14,3.22-.24,4.7-.21.81-1.4,1.87-2.15,1.88-.74,0-1.64-1.08-2.2-1.88-.32-.46-.16-1.29-.15-1.95.14-7.48.22-14.96.52-22.43.04-1.05,1.2-2.06,1.85-3.09.99.71,2.41,1.21,2.9,2.17,2.6,5.11,4.96,10.33,7.42,15.51.35.73.74,1.45,1.38,2.71,2.14-4.65,4.07-8.83,6-13.01.77-1.66,1.37-3.42,2.36-4.94.59-.9,1.78-1.4,2.7-2.08.69,1.01,1.89,1.98,1.98,3.05.37,4.3.43,8.63.55,12.95.09,3.32.08,6.65.15,9.97.03,1.6-.44,2.95-2.22,2.99-1.65.04-2.22-1.26-2.29-2.72-.17-3.73-.29-7.47-.44-11.21-.02-.39-.12-.78-.19-1.17l-.5-.06Z"/>
  <path class="cls-8" d="M308.97,184.08c.04,7.98-6.59,14.9-14.34,14.96-7.61.06-14.2-6.66-14.2-14.45,0-8,6.63-14.72,14.53-14.72,7.69,0,13.97,6.37,14.01,14.21ZM285.37,184.66c.01,5.52,3.77,9.43,9.08,9.45,5.45.02,9.7-4.28,9.74-9.85.04-5.49-3.95-9.6-9.3-9.59-5.51.01-9.54,4.24-9.53,9.99Z"/>
  <text class="cls-3" transform="translate(56.94 289)"><tspan class="cls-7" x="0" y="0">SPINSPIR</tspan><tspan class="cls-1" x="216.13" y="0">A</tspan><tspan class="cls-6" x="249.61" y="0">TION</tspan></text>
  <text class="cls-4" transform="translate(211.14 323.12)"><tspan class="cls-5" x="0" y="0">H</tspan><tspan class="cls-2" x="22.66" y="0">A</tspan><tspan class="cls-5" x="44.02" y="0">W</tspan></text>
</svg>