<?xml version="1.0" encoding="UTF-8"?>
<svg id="Ebene_1" data-name="Ebene 1" xmlns="http://www.w3.org/2000/svg" viewBox="0 0 77.55 95.94">
  <defs>
    <style>
      .cls-1 {
        fill: #fff;
      }

      .cls-1, .cls-2 {
        stroke: #fff;
        stroke-miterlimit: 10;
      }

      .cls-2 {
        fill: none;
      }
    </style>
  </defs>
  <path class="cls-1" d="M21.76,67.32c.08.1.17.19.25.29.62-.46,1.26-.92,1.87-1.39,3.47-2.59,6.9-5.23,10.42-7.74,1.21-.86,1.15-1.94.9-3.05-.11-.48-.71-.99-1.21-1.21-1.12-.49-1.8.28-2.43,1.1-.99,1.28-2.04,2.5-3.07,3.75-2.25,2.74-4.5,5.49-6.75,8.23h0Z"/>
  <g>
    <path class="cls-2" d="M.78,47.63c0,.1.01.21.02.31,11.35,1.66,22.7,3.34,34.05,4.98,1.23.18,1.63.85,1.69,1.98.12,2.19.28,4.38.46,6.56.76,8.84,1.55,17.69,2.33,26.53.12,1.43.31,2.85.46,4.27.97-5.98,1.65-11.93,2.34-17.88.72-6.3,1.49-12.59,2.17-18.9.26-2.43.26-2.49,2.64-2.61,6.8-.35,13.6-.73,20.39-1.12,2.85-.16,5.7-.37,8.55-.56-.55-.33-1.1-.48-1.66-.59-9.6-1.96-19.2-3.95-28.82-5.83-1.39-.27-2.02-.83-2.1-2.21-.46-7.6-.94-15.2-1.44-22.8-.32-4.93-.68-9.86-1.03-14.79-.91,6.88-1.62,13.76-2.36,20.64-.61,5.67-1.26,11.34-1.85,17.02-.11,1.06-.46,1.65-1.65,1.76-8.62.78-17.22,1.62-25.84,2.43-2.8.26-5.6.53-8.39.8h0Z"/>
    <path class="cls-1" d="M22.39,30.84c-.06.06-.12.12-.19.18,2.77,3.57,5.59,7.1,8.29,10.72.87,1.16,1.82,1.71,3.2,1.39.55-.13,1.46-.39,1.51-.69.08-.56-.17-1.42-.6-1.77-4.03-3.32-8.13-6.56-12.22-9.82h0Z"/>
  </g>
  <path class="cls-1" d="M59.08,67.72c.07-.06.15-.11.22-.17-3.3-4.13-6.63-8.23-9.88-12.39-.89-1.14-1.94-.87-2.96-.61-.45.12-.95.78-1.07,1.28-.26,1.05-.31,2.09.85,2.89,4.31,2.96,8.56,6.01,12.84,9.02h0Z"/>
  <path class="cls-1" d="M59.74,31.11c-.08-.09-.16-.18-.24-.27-4.38,3.37-8.76,6.74-13.11,10.14-.68.53-1.19,1.3-1.77,1.96.81.34,1.6.86,2.43.98.87.12,2.19.19,2.62-.31,3.45-4.09,6.73-8.32,10.06-12.5h0Z"/>
</svg>