<?xml version="1.0" encoding="UTF-8"?>
<svg id="Ebene_3" data-name="Ebene 3" xmlns="http://www.w3.org/2000/svg" viewBox="0 0 840.59 85.76">
  <defs>
    <style>
      .cls-1 {
        fill: #e0e0e0;
        stroke-width: 0px;
      }
    </style>
  </defs>
  <g>
    <path class="cls-1" d="M55.57,12.17c3.86,0,3.87-6,0-6s-3.87,6,0,6h0Z"/>
    <path class="cls-1" d="M37.84,65.99c2.73-2.67,3.97-6.49,2.78-10.22s-4.73-5.69-8.17-7.06-6.77-2.35-10.14-3.59c-3.13-1.15-6.21-2.5-8.64-4.86-4.56-4.43-5.39-11.18-4.16-17.35s5.13-11.62,11-14.46c6.96-3.37,15.28-2.76,22.57-.94,3.75.93,5.35-4.85,1.6-5.79-7.39-1.84-15.45-2.5-22.82-.2S8.83,8.49,5.75,15.24c-1.6,3.5-2.45,7.18-2.64,11.03-.18,3.55.1,7.37,1.41,10.71,1.31,3.34,3.43,6.45,6.26,8.71,3.07,2.45,6.48,3.96,10.16,5.3s7.86,2.31,11.41,4.21c.7.37,1.4.77,1.94,1.36.46.49.64.89.74,1.51.24,1.46-.28,2.56-1.43,3.68-2.77,2.7,1.48,6.94,4.24,4.24h0Z"/>
    <path class="cls-1" d="M12.27,62.96c.64.49,1.29.96,1.96,1.4.34.22.72.34,1.12.36.4.09.8.07,1.2-.05.39-.09.73-.27,1.02-.54.33-.21.58-.49.77-.84l.3-.72c.14-.53.14-1.06,0-1.6l-.3-.72c-.27-.45-.63-.81-1.08-1.08-.67-.45-1.32-.92-1.96-1.4-.34-.22-.72-.34-1.12-.36-.4-.09-.8-.07-1.2.05-.39.09-.73.27-1.02.54-.33.21-.58.49-.77.84l-.3.72c-.14.53-.14,1.06,0,1.6l.3.72c.27.45.63.81,1.08,1.08h0Z"/>
    <path class="cls-1" d="M41.02,77.93c-12.38,4.11-26.03.91-36.54-6.35l1.08,4.1c2.8-5.27,5.6-10.53,8.4-15.8l-4.71.61c.79.69,1.59,1.36,2.42,2,1.28.99,3,1.25,4.24,0,1.03-1.03,1.29-3.24,0-4.24-.83-.64-1.63-1.31-2.42-2-1.39-1.22-3.75-1.2-4.71.61-2.8,5.27-5.6,10.53-8.4,15.8-.8,1.51-.3,3.15,1.08,4.1,11.72,8.1,27.4,11.52,41.16,6.95,1.54-.51,2.54-2.07,2.1-3.69-.41-1.5-2.15-2.61-3.69-2.1h0Z"/>
    <path class="cls-1" d="M48.89,73.5c-.4.35-.8.69-1.22,1.02l.61-.47c-1.8,1.39-3.78,2.5-5.87,3.38l.72-.3c-.7.29-1.4.56-2.11.8s-1.39.69-1.79,1.38c-.38.64-.54,1.59-.3,2.31.48,1.47,2.1,2.64,3.69,2.1,3.88-1.33,7.45-3.24,10.52-5.97,1.18-1.05,1.15-3.19,0-4.24-1.26-1.15-2.99-1.11-4.24,0h-.01Z"/>
    <path class="cls-1" d="M55.29,61.8c-.32,1.7-.8,3.37-1.46,4.97-.13.4-.14.8-.05,1.2.02.4.14.77.36,1.12.36.62,1.08,1.22,1.79,1.38.77.17,1.63.14,2.31-.3l.61-.47c.37-.37.63-.82.77-1.32.66-1.6,1.14-3.27,1.46-4.97.13-.4.14-.8.05-1.2-.02-.4-.14-.77-.36-1.12-.36-.62-1.08-1.22-1.79-1.38-.77-.17-1.63-.14-2.31.3-.63.4-1.24,1.03-1.38,1.79h0Z"/>
    <path class="cls-1" d="M55.67,57.07c0,1.39-.09,2.77-.27,4.15l.11-.8c-.06.46-.14.92-.22,1.38-.15.81-.12,1.58.3,2.31.36.62,1.08,1.22,1.79,1.38.77.17,1.63.14,2.31-.3.62-.4,1.24-1.03,1.38-1.79.38-2.08.59-4.2.59-6.32,0-.77-.34-1.58-.88-2.12s-1.37-.91-2.12-.88-1.58.29-2.12.88-.88,1.31-.88,2.12h0Z"/>
    <path class="cls-1" d="M55.47,53.59c.02.13.04.25.05.38l-.11-.8c.17,1.29.25,2.6.25,3.9,0,.77.33,1.58.88,2.12.27.29.59.5.97.62.36.19.74.27,1.16.26.78-.03,1.58-.29,2.12-.88s.88-1.31.88-2.12c0-1.71-.16-3.39-.41-5.07-.09-.39-.27-.73-.54-1.02-.21-.33-.49-.58-.84-.77-.34-.22-.72-.34-1.12-.36-.4-.09-.8-.07-1.2.05-.73.23-1.43.68-1.79,1.38l-.3.72c-.14.53-.14,1.06,0,1.6h0Z"/>
    <path class="cls-1" d="M52.98,7.66c-2.6,5.1-5.2,10.2-7.8,15.3l4.71-.61c-4.47-3.57-9.91-6.38-15.81-5.94-5.25.39-10.52,3.65-10.51,9.46,0,6.09,6.19,8.71,11.17,10.16s9.61,2.96,13.75,5.87c1.46,1.03,3.17,2.6,4.26,4.26,1.5,2.26,2.28,4.76,2.71,7.43.25,1.6,2.25,2.49,3.69,2.1,1.71-.47,2.35-2.08,2.1-3.69-.7-4.42-2.58-8.56-5.66-11.83-2.82-3-6.45-5.17-10.2-6.78-2.38-1.02-4.81-1.86-7.28-2.61-2.12-.65-4.29-1.16-6.25-2.23-.72-.39-1.5-.91-1.96-1.46-.22-.27-.39-1.19-.36-1.46.16-1.33,1.08-2.21,2.43-2.73,4.65-1.79,10.07.83,13.67,3.71,1.41,1.12,3.75,1.28,4.71-.61,2.6-5.1,5.2-10.2,7.8-15.3.74-1.44.38-3.25-1.08-4.1-1.34-.78-3.37-.37-4.1,1.08h0v-.02Z"/>
  </g>
  <g>
    <path class="cls-1" d="M105.44,52.46c-3.15.23-6.34.12-9.5.12-1.57,0-3.07,1.38-3,3s1.32,3,3,3c3.16,0,6.35.11,9.5-.12.8-.06,1.54-.3,2.12-.88.52-.52.91-1.37.88-2.12-.07-1.53-1.32-3.12-3-3h0Z"/>
    <path class="cls-1" d="M73.97,77.62V5.17l-3,3h28.51c6.09,0,12.19.32,17.3,3.56,3.12,1.98,5.72,5.24,7.01,8.78,1.65,4.54,1.96,9.6,1.32,14.35-.64,4.75-2.53,9.13-5.98,12.34s-8.62,4.85-13.69,5.25c-1.62.13-3,1.29-3,3,0,1.52,1.38,3.13,3,3,5.39-.43,10.87-1.73,15.34-4.92,4.21-3.01,7.22-7.17,8.91-12.05,1.79-5.19,2.04-11,1.31-16.41s-2.54-9.96-5.9-13.95c-5.79-6.89-14.89-8.96-23.5-8.96h-30.64c-1.62,0-3,1.37-3,3v72.44c0,3.86,6,3.87,6,0h0v.02Z"/>
    <path class="cls-1" d="M73.97,80.57v-2.96c.02-.41-.07-.8-.26-1.16-.12-.37-.33-.69-.62-.97-.27-.29-.59-.5-.97-.62-.36-.19-.74-.27-1.16-.26l-.8.11c-.51.14-.95.4-1.32.77-.54.59-.88,1.31-.88,2.12v2.96c-.02.41.07.8.26,1.16.12.37.33.69.62.97.27.29.59.5.97.62.36.19.74.27,1.16.26l.8-.11c.51-.14.95-.4,1.32-.77.54-.59.88-1.31.88-2.12h0Z"/>
    <path class="cls-1" d="M87.57,68.9v8.72c0,1.57,1.38,3.07,3,3s3-1.32,3-3v-8.72c0-1.57-1.38-3.07-3-3s-3,1.32-3,3h0Z"/>
    <path class="cls-1" d="M87.57,60.37v8.53c0,1.57,1.38,3.07,3,3s3-1.32,3-3v-8.53c0-1.57-1.38-3.07-3-3s-3,1.32-3,3h0Z"/>
    <path class="cls-1" d="M108.68,37.97c1.91-2.51,2.44-6.04,2.11-9.11-.28-2.68-1.12-5.19-3.01-7.18-3.22-3.4-8.02-3.7-12.4-3.7h-4.81c-1.57,0-3.07,1.38-3,3s1.32,3,3,3c2.5,0,5.02-.09,7.52.02.32.01.64.04.97.07.06,0,.46.05.46.05,0,.02-.58-.1-.24-.03.56.12,1.12.2,1.67.36.22.06.45.13.67.21-.03-.01.36.14.36.14-.02.03-.68-.33-.19-.08.43.22.84.46,1.25.72s-.5-.46,0,.01c.15.14.3.27.44.41.12.12.4.35.45.51.01.05-.36-.56-.21-.26.06.13.16.24.24.36.11.17.21.35.3.53.05.11.1.22.15.32.18.34-.18-.59-.1-.22.1.46.3.89.39,1.36.03.13.05.26.08.39.14.66-.03-.49,0-.09.02.32.06.63.07.95s.02.65.01.97c0,.2-.01.39-.02.59,0,.07-.06.84-.03.45.03-.34-.02.1-.02.14-.04.22-.08.43-.13.65-.09.37-.21.73-.33,1.09-.06.17-.26.44.02-.05-.08.14-.14.28-.22.42-.19.34-.41.66-.64.97-.95,1.26-.24,3.41,1.08,4.1,1.58.84,3.09.26,4.1-1.08h0Z"/>
  </g>
  <g>
    <path class="cls-1" d="M141.77,80.57v-23.5c0-3.86-6-3.87-6,0v23.5c0,3.86,6,3.87,6,0h0Z"/>
    <path class="cls-1" d="M138.77,83.57c3.86,0,3.87-6,0-6s-3.87,6,0,6h0Z"/>
    <path class="cls-1" d="M155.37,5.17v75.4l3-3h-11.96c-3.86,0-3.87,6,0,6h11.96c1.62,0,3-1.37,3-3V5.17c0-3.86-6-3.87-6,0h0Z"/>
    <path class="cls-1" d="M138.77,8.17h19.6c1.57,0,3.07-1.38,3-3s-1.32-3-3-3h-19.6c-1.57,0-3.07,1.38-3,3s1.32,3,3,3h0Z"/>
    <path class="cls-1" d="M138.77,8.17c3.86,0,3.87-6,0-6s-3.87,6,0,6h0Z"/>
    <path class="cls-1" d="M141.77,57.07v-12.24c0-1.57-1.38-3.07-3-3s-3,1.32-3,3v12.24c0,1.57,1.38,3.07,3,3s3-1.32,3-3h0Z"/>
  </g>
  <g>
    <path class="cls-1" d="M177.16,80.57V5.17c0-3.86-6-3.87-6,0v75.4c0,3.86,6,3.87,6,0h0Z"/>
    <path class="cls-1" d="M174.16,83.57c3.86,0,3.87-6,0-6s-3.87,6,0,6h0Z"/>
    <path class="cls-1" d="M190.76,34.47v46.1c0,3.86,6,3.87,6,0v-46.1c0-3.86-6-3.87-6,0h0Z"/>
    <path class="cls-1" d="M232.96,12.15v-6.98l-3,3h19.5l-3-3v75.4c0,3.86,6,3.87,6,0V5.17c0-1.62-1.37-3-3-3h-19.5c-1.62,0-3,1.37-3,3v6.98c0,3.86,6,3.87,6,0h0Z"/>
    <path class="cls-1" d="M229.96,15.15c3.86,0,3.87-6,0-6s-3.87,6,0,6h0Z"/>
    <path class="cls-1" d="M185.2,8.17h8.57l-2.12-.88c4.09,5.2,8.17,10.41,12.26,15.61,6.48,8.26,12.97,16.52,19.45,24.77,1.5,1.91,2.99,3.81,4.49,5.72,1,1.28,3.19,1.05,4.24,0,1.26-1.26,1-2.96,0-4.24-5.16-6.57-10.32-13.15-15.49-19.72-6.59-8.39-13.18-16.78-19.77-25.17-.98-1.25-1.61-2.05-3.49-2.09-2.71-.05-5.43,0-8.14,0-3.86,0-3.87,6,0,6h0Z"/>
  </g>
  <g>
    <path class="cls-1" d="M273.43,41.05c-3.51-3.02-5.17-6.81-5.42-11.37-.28-4.9.58-9.77,3.18-13.98,5.23-8.49,15.69-10.45,24.93-9.32,5.87.72,11.62,2.62,16.83,5.39,1.43.76,3.26.36,4.1-1.08.79-1.36.36-3.34-1.08-4.1-10.46-5.54-23.84-8.69-35.43-4.99-5.57,1.77-10.38,5.11-13.76,9.89s-4.91,10.94-4.83,16.86c.09,6.46,2.23,12.65,7.23,16.96,1.23,1.06,3.04,1.21,4.24,0,1.08-1.08,1.23-3.18,0-4.24h0v-.02Z"/>
    <path class="cls-1" d="M285.74,19.05c-3.32,2.62-4.44,7.82-1.9,11.37,2.7,3.77,7.61,4.92,11.79,6.2,6.95,2.13,14.27,5.12,17.36,11.94,1.51,3.33,1.77,7.49,1.46,11.23s-1.64,7.66-3.94,10.79c-4.72,6.43-13.1,8.85-20.73,9.07-9.57.27-18.55-2.65-26.4-8.07l1.08,4.1c2.8-5.27,5.6-10.53,8.4-15.8l-4.71.61c5.97,5.24,13.53,9.46,21.76,8.42,3.63-.46,6.93-2.11,8.81-5.38,2.01-3.49,1.57-8.1-1.15-11.07-2.87-3.12-7.62-4.34-11.49-5.68-1.53-.53-3.28.6-3.69,2.1-.45,1.65.56,3.16,2.1,3.69,1.77.61,3.55,1.22,5.29,1.94,1.27.52,2.88,1.26,3.67,2.32,1.53,2.08-.14,4.74-2.07,5.64.37-.17-.51.17-.5.17-.39.12-.8.22-1.2.29-.57.1-1.46.15-2.19.15-1.87,0-3.67-.34-5.45-.92-3.61-1.18-6.8-3.42-9.63-5.9-1.39-1.22-3.75-1.2-4.71.61-2.8,5.27-5.6,10.53-8.4,15.8-.8,1.51-.3,3.15,1.08,4.1,7.43,5.13,16.02,8.25,25.05,8.82,9.05.57,18.57-1.27,25.75-7.08,7.08-5.74,10.07-15.09,9.31-23.99-.35-4.15-1.47-8.32-3.89-11.76-2.25-3.19-5.27-5.69-8.66-7.59-4.62-2.59-9.66-3.78-14.61-5.51-1.57-.55-3.95-1.47-4.65-2.82-.24-.46-.25-1.19-.05-1.85.1-.33.1-.37.4-.77-.18.24.18-.18.18-.18.25-.26.53-.49.82-.71,1.27-1,1.05-3.19,0-4.24-1.26-1.26-2.97-1.01-4.24,0h0l-.05-.04Z"/>
  </g>
  <g>
    <path class="cls-1" d="M332.86,38.82V5.17l-3,3c10.39,0,20.78-.04,31.18,0,5.18.02,10.36.86,14.63,3.56s6.8,6.93,7.92,11.91c1.22,5.45.97,11.63-1.03,16.91-1.68,4.43-5.09,7.88-9.54,9.88-4.11,1.85-9.15,2.13-13.87,2.13h-9.69c-3.86,0-3.87,6,0,6,7.54,0,15.65.72,22.93-1.54,5.62-1.74,10.49-5.2,13.66-10.19,3.47-5.45,4.49-12.23,4.15-18.58s-2.14-12.3-6.21-17.15c-3.82-4.55-9.43-7.26-15.21-8.28-6.4-1.13-13.16-.67-19.63-.67h-19.3c-1.62,0-3,1.37-3,3v33.65c0,3.86,6,3.87,6,0h0v.02Z"/>
    <path class="cls-1" d="M329.86,41.82c3.86,0,3.87-6,0-6s-3.87,6,0,6h0Z"/>
    <path class="cls-1" d="M346.46,63.32v17.25l3-3h-19.6c-1.57,0-3.07,1.38-3,3s1.32,3,3,3h19.6c1.62,0,3-1.37,3-3v-17.25c0-1.57-1.38-3.07-3-3s-3,1.32-3,3h0Z"/>
    <path class="cls-1" d="M346.46,20.97v18.8c0,1.62,1.37,3,3,3,3.66,0,7.5.3,11.1-.46,2.83-.6,5.31-2.06,7.04-4.38s2.23-5.26,2.15-8.01c-.12-4.05-1.71-7.74-5.22-9.94-1.33-.84-3.36-.32-4.1,1.08-.78,1.48-.34,3.21,1.08,4.1.14.09.27.18.4.26.16.1.33.35-.04-.04.19.19.4.38.59.56.08.08.15.18.23.26-.39-.37-.15-.22-.04-.05.17.27.34.53.49.81.07.14.14.29.21.43-.05-.11-.19-.56-.03-.03.09.29.18.57.25.86s.13.61.18.92c-.08-.59.02.45.02.63.02.64,0,1.27-.04,1.9-.05.78.09-.34-.02.19-.06.31-.12.62-.2.92-.06.23-.13.45-.21.67-.02.05-.13.37-.14.37-.04,0,.28-.55.11-.28-.11.19-.2.4-.31.59-.07.12-.57.85-.29.46s-.15.15-.24.26c-.15.16-.31.3-.47.45-.52.49.37-.22-.06.05-.25.15-.49.31-.74.45-.21.11-.42.2-.63.31.74-.37-.06,0-.26.07-.53.17-1.08.31-1.63.41-.26.05-.88.1-.28.05-.34.03-.68.07-1.02.09-.47.03-.93.04-1.4.04h-6.45l3,3v-18.8c0-1.57-1.38-3.07-3-3s-3,1.32-3,3h-.03Z"/>
  </g>
  <g>
    <path class="cls-1" d="M400.66,80.57v-25c0-3.86-6-3.87-6,0v25c0,3.86,6,3.87,6,0h0Z"/>
    <path class="cls-1" d="M397.66,83.57c3.86,0,3.87-6,0-6s-3.87,6,0,6h0Z"/>
    <path class="cls-1" d="M406.13,8.17h11.13l-3-3v75.4c0,3.86,6,3.87,6,0V5.17c0-1.62-1.37-3-3-3h-11.13c-3.86,0-3.87,6,0,6h0Z"/>
  </g>
  <g>
    <path class="cls-1" d="M436.06,80.57V5.17l-3,3h25.01c4.11,0,8.35-.24,12.38.72s7.98,3.07,10.71,6.4c2.73,3.33,4.14,7.9,4.28,12.27s-.66,9.13-3.31,12.79c-1.05,1.45-2.69,2.89-4.32,3.88-2.04,1.24-4.22,1.99-6.55,2.55-3.75.91-2.16,6.69,1.6,5.79,4.63-1.12,9.13-3.21,12.44-6.71,3.12-3.28,5.03-7.54,5.72-12,1.62-10.5-1.73-21.8-11.17-27.57-5.73-3.5-12.21-4.12-18.76-4.12h-28.03c-1.62,0-3,1.37-3,3v75.4c0,3.86,6,3.87,6,0h0Z"/>
    <path class="cls-1" d="M433.06,83.57c3.86,0,3.87-6,0-6s-3.87,6,0,6h0Z"/>
    <path class="cls-1" d="M449.66,51.57v29c0,3.86,6,3.87,6,0v-29c0-3.86-6-3.87-6,0h0Z"/>
    <path class="cls-1" d="M452.66,54.57c3.86,0,3.87-6,0-6s-3.87,6,0,6h0Z"/>
    <path class="cls-1" d="M472.54,55.19c6.02,7.85,12.04,15.7,18.06,23.55.86,1.12,1.71,2.23,2.57,3.35l2.59-4.51h-24.4l2.59,1.49c-1.53-2.38-3.07-4.76-4.6-7.14-.88-1.36-2.66-1.92-4.1-1.08-1.35.79-1.96,2.74-1.08,4.1,1.34,2.07,2.67,4.14,4.01,6.21.8,1.24,1.57,2.33,3.24,2.41.56.03,1.13,0,1.69,0h22.66c2.06,0,4.03-2.64,2.59-4.51-6.02-7.85-12.04-15.7-18.06-23.55-.86-1.12-1.71-2.23-2.57-3.35-.98-1.28-2.58-1.97-4.1-1.08-1.26.74-2.07,2.81-1.08,4.1h-.01Z"/>
    <path class="cls-1" d="M471.36,29.57c-.03-2.83-.82-5.43-2.59-7.65-1.53-1.92-3.84-3.16-6.16-3.85-3.22-.96-6.63-.8-9.95-.8-1.62,0-3,1.37-3,3v8.46c0,1.57,1.38,3.07,3,3s3-1.32,3-3v-8.46l-3,3h3c.52,0,1.04,0,1.55.01.63.02,1.25.08,1.88.14-.72-.06.09.02.2.04.28.05.55.1.83.17.48.11.96.24,1.43.4.16.05.45.22.61.23-.39-.17-.43-.18-.14-.05.09.04.19.09.28.14.39.2.76.44,1.12.68.55.36-.47-.45.05.05.19.17.38.34.55.53.08.08.15.16.22.24.21.25.19.22-.07-.11.15.11.26.38.36.53.11.18.2.38.31.56.3.51-.18-.55.08.18.17.47.27.94.37,1.42.14.67,0-.5.01.15.01.33.04.67.04,1,.02,1.57,1.37,3.07,3,3s3.02-1.32,3-3h.02Z"/>
  </g>
  <g>
    <path class="cls-1" d="M520.52,75.25c3.86,0,3.87-6,0-6s-3.87,6,0,6h0Z"/>
    <path class="cls-1" d="M507.7,60.24c2.32-6.1,4.64-12.2,6.97-18.3,3.71-9.74,7.41-19.47,11.12-29.21.86-2.25,1.72-4.51,2.57-6.76l-2.89,2.2h21.4l-2.89-2.2c3.25,8.55,6.51,17.1,9.76,25.65,5.14,13.51,10.28,27.01,15.42,40.52,1.17,3.08,2.34,6.15,3.51,9.23l2.89-3.8h-20.9l2.89,2.2c-1.5-4.37-3-8.73-4.5-13.1-.43-1.26-1.51-2.2-2.89-2.2h-28c-3.86,0-3.87,6,0,6h28l-2.89-2.2c1.5,4.37,3,8.73,4.5,13.1.43,1.26,1.51,2.2,2.89,2.2h20.9c1.8,0,3.6-1.94,2.89-3.8-3.25-8.55-6.51-17.1-9.76-25.65-5.14-13.51-10.28-27.01-15.42-40.52-1.17-3.08-2.34-6.15-3.51-9.23-.48-1.25-1.48-2.2-2.89-2.2h-21.4c-1.42,0-2.42.95-2.89,2.2-2.32,6.1-4.64,12.2-6.97,18.3l-11.12,29.21c-.86,2.25-1.72,4.51-2.57,6.76-.58,1.51.64,3.29,2.1,3.69,1.69.46,3.11-.58,3.69-2.1h-.01Z"/>
    <path class="cls-1" d="M517,73.28c-.18.54-.37,1.07-.55,1.61l-.08.23c-.13.4-.14.8-.05,1.2.02.4.14.77.36,1.12.19.35.45.63.77.84.29.27.63.44,1.02.54l.8.11c.54,0,1.05-.14,1.51-.41l.61-.47c.37-.37.63-.82.77-1.32.18-.54.37-1.07.55-1.61l.08-.23c.13-.4.14-.8.05-1.2-.02-.4-.14-.77-.36-1.12-.19-.35-.45-.63-.77-.84-.29-.27-.63-.44-1.02-.54l-.8-.11c-.54,0-1.05.14-1.51.41l-.61.47c-.37.37-.63.82-.77,1.32h0Z"/>
    <path class="cls-1" d="M519.04,66.74c-.6,1.91-1.19,3.82-1.79,5.72-.09.27-.17.55-.26.82-.23.73-.08,1.66.3,2.31s1.08,1.22,1.79,1.38c1.63.37,3.19-.49,3.69-2.1.6-1.91,1.19-3.82,1.79-5.72.09-.27.17-.55.26-.82.23-.73.08-1.66-.3-2.31s-1.08-1.22-1.79-1.38c-1.63-.37-3.19.49-3.69,2.1h0Z"/>
    <path class="cls-1" d="M536.16,30.47c3.86,0,3.87-6,0-6s-3.87,6,0,6h0Z"/>
    <path class="cls-1" d="M533.27,26.68c-2.56,7.31-5.13,14.63-7.69,21.94-.37,1.05-.74,2.11-1.11,3.16-.65,1.86,1.05,3.8,2.89,3.8h17.6c3.86,0,3.87-6,0-6h-17.6l2.89,3.8c2.56-7.31,5.13-14.63,7.69-21.94.37-1.05.74-2.11,1.11-3.16.54-1.53-.61-3.28-2.1-3.69-1.65-.45-3.15.56-3.69,2.1h0Z"/>
  </g>
  <g>
    <path class="cls-1" d="M573.76,8.17c3.86,0,3.87-6,0-6s-3.87,6,0,6h0Z"/>
    <path class="cls-1" d="M606.46,28.81v51.76l3-3h-19.6l3,3V21.77c0-1.62-1.37-3-3-3h-16.1c-3.86,0-3.87,6,0,6h16.1l-3-3v58.8c0,1.62,1.37,3,3,3h19.6c1.62,0,3-1.37,3-3V28.81c0-3.86-6-3.87-6,0h0Z"/>
    <path class="cls-1" d="M622.56,12.5v9.27l3-3h-16.1c-1.57,0-3.07,1.38-3,3s1.32,3,3,3h16.1c1.62,0,3-1.37,3-3v-9.27c0-1.57-1.38-3.07-3-3s-3,1.32-3,3h0Z"/>
    <path class="cls-1" d="M573.76,8.17h51.8c3.86,0,3.87-6,0-6h-51.8c-3.86,0-3.87,6,0,6h0Z"/>
  </g>
  <g>
    <path class="cls-1" d="M637.26,80.57V29.34c0-3.86-6-3.87-6,0v51.23c0,3.86,6,3.87,6,0h0Z"/>
    <path class="cls-1" d="M650.86,5.17v75.4l3-3h-19.6c-3.86,0-3.87,6,0,6h19.6c1.62,0,3-1.37,3-3V5.17c0-3.86-6-3.87-6,0h0Z"/>
  </g>
  <g>
    <path class="cls-1" d="M674.11,24.41c6.68-11.45,18.89-17.85,31.98-18.31s25.97,4.35,33.67,15c7.64,10.56,9.32,25.17,3.79,37.07-5.44,11.7-16.54,19.34-29.24,21.11-14.59,2.03-30.11-3.06-38.66-15.48-.92-1.33-2.63-1.94-4.1-1.08-1.32.77-2,2.76-1.08,4.1,4.17,6.06,9.74,11,16.38,14.19,6.95,3.34,14.57,4.82,22.27,4.65,14.87-.32,29.18-7.29,37.21-20.05s8.53-30.12,1.16-43.5S726.38,1.25,711.63.2c-14.98-1.06-30.2,4.42-39.54,16.5-1.16,1.5-2.22,3.05-3.17,4.69-1.95,3.34,3.23,6.37,5.18,3.03h0Z"/>
    <path class="cls-1" d="M699.01,20.73c-8.71,3.6-14.76,11.48-15.22,21.03s4.69,18.19,13.01,22.28,19.13,3.18,26.71-2.83c7.35-5.83,10.44-15.9,7.88-24.9-2.95-10.36-12.83-17.15-23.42-17.25-3.86-.04-3.87,5.96,0,6,7.15.07,13.62,3.97,16.75,10.45,3.13,6.48,1.65,14.24-3.06,19.27-4.97,5.31-12.7,7.18-19.6,4.96-6.36-2.05-11.32-7.77-12.15-14.45-.98-7.88,3.31-15.72,10.72-18.78,1.5-.62,2.56-1.99,2.1-3.69-.39-1.41-2.18-2.72-3.69-2.1h-.03Z"/>
  </g>
  <g>
    <path class="cls-1" d="M765.06,7.31c0-.59,0-1.17.01-1.76v-.25c.02-.41-.07-.8-.26-1.16-.12-.37-.33-.69-.62-.97-.27-.29-.59-.5-.97-.62-.36-.19-.74-.27-1.16-.26l-.8.11c-.51.14-.95.4-1.32.77l-.47.61c-.27.47-.41.97-.41,1.51,0,.59,0,1.17-.01,1.76v.25c-.02.41.07.8.26,1.16.12.37.33.69.62.97.27.29.59.5.97.62.36.19.74.27,1.16.26l.8-.11c.51-.14.95-.4,1.32-.77l.47-.61c.27-.47.41-.97.41-1.51h0Z"/>
    <path class="cls-1" d="M765.02,12.6l.03-4.62v-.67c.01-.77-.33-1.58-.87-2.12s-1.37-.91-2.12-.88-1.58.29-2.12.88-.87,1.31-.88,2.12l-.03,4.62v.67c-.01.77.33,1.58.87,2.12s1.37.91,2.12.88,1.58-.29,2.12-.88.87-1.31.88-2.12h0Z"/>
    <path class="cls-1" d="M762.06,15.6c3.86,0,3.87-6,0-6s-3.87,6,0,6h0Z"/>
    <path class="cls-1" d="M765.28,80.7c0-2.46-.02-4.91-.02-7.37v-1.06c0-1.57-1.38-3.07-3-3s-3.01,1.32-3,3c0,2.46.02,4.91.02,7.37v1.06c0,1.57,1.38,3.07,3,3s3.01-1.32,3-3h0Z"/>
    <path class="cls-1" d="M762.28,83.7c3.86,0,3.87-6,0-6s-3.87,6,0,6h0Z"/>
    <path class="cls-1" d="M778.73,34.53c.02,5.19.03,10.37.05,15.56.03,8.27.06,16.55.08,24.82,0,1.91.01,3.81.02,5.72.01,3.86,6.01,3.87,6,0-.02-5.19-.03-10.37-.05-15.56-.03-8.27-.06-16.55-.08-24.82,0-1.91-.01-3.81-.02-5.72-.01-3.86-6.01-3.87-6,0h0Z"/>
    <path class="cls-1" d="M820.87,16.46c-.01-3.78-.03-7.56-.04-11.35l-3,3c6.5-.02,13-.04,19.5-.06l-3-3c.03,8.51.06,17.03.09,25.54.05,13.54.09,27.09.14,40.63l.03,9.23c.01,3.86,6.01,3.87,6,0-.03-8.51-.06-17.03-.09-25.54-.05-13.54-.09-27.09-.14-40.63l-.03-9.23c0-1.62-1.37-3.01-3-3l-19.5.06c-1.62,0-3.01,1.37-3,3,.01,3.78.03,7.56.04,11.35,0,3.79,6.01,3.87,6,0h0Z"/>
    <path class="cls-1" d="M817.87,19.46c3.86,0,3.87-6,0-6s-3.87,6,0,6h0Z"/>
    <path class="cls-1" d="M770.49,8.27c3.71-.01,7.43-.02,11.14-.04l-2.12-.88c4.1,5.19,8.21,10.38,12.31,15.57,6.51,8.24,13.02,16.47,19.53,24.71,1.5,1.9,3.01,3.8,4.51,5.71,1.01,1.27,3.19,1.05,4.24,0,1.26-1.26,1.01-2.97,0-4.24-5.49-6.95-10.98-13.89-16.47-20.84l-19.43-24.58c-.15-.18-.28-.4-.45-.56-1.15-1.17-3.12-.88-4.61-.87-2.88,0-5.77.02-8.65.03-3.86,0-3.87,6.01,0,6h0Z"/>
  </g>
</svg>